<?xml version="1.0" encoding="UTF-8" standalone="no"?>
<!-- Created with Inkscape (http://www.inkscape.org/) -->

<svg
   xmlns:dc="http://purl.org/dc/elements/1.1/"
   xmlns:cc="http://creativecommons.org/ns#"
   xmlns:rdf="http://www.w3.org/1999/02/22-rdf-syntax-ns#"
   xmlns:svg="http://www.w3.org/2000/svg"
   xmlns="http://www.w3.org/2000/svg"
   xmlns:xlink="http://www.w3.org/1999/xlink"
   xmlns:sodipodi="http://sodipodi.sourceforge.net/DTD/sodipodi-0.dtd"
   xmlns:inkscape="http://www.inkscape.org/namespaces/inkscape"
   width="800"
   height="600"
   viewBox="0 0 800 600"
   id="svg2"
   version="1.1"
   inkscape:version="0.91 r13725"
   inkscape:export-filename="/home/gidalti/PycharmProjects/cotolengo/logo_farmacia_cotolengo.png"
   inkscape:export-xdpi="90"
   inkscape:export-ydpi="90"
   sodipodi:docname="logo_farmacia.svg">
  <defs
     id="defs4">
    <linearGradient
       inkscape:collect="always"
       id="linearGradient4825">
      <stop
         id="stop4829"
         offset="0"
         style="stop-color:#000000;stop-opacity:1" />
      <stop
         id="stop4827"
         offset="1"
         style="stop-color:#ffff00;stop-opacity:1;" />
    </linearGradient>
    <radialGradient
       inkscape:collect="always"
       xlink:href="#linearGradient4825"
       id="radialGradient4839"
       cx="407.56708"
       cy="856.9541"
       fx="407.56708"
       fy="856.9541"
       r="163.21688"
       gradientTransform="matrix(1.4207369,0.00707532,-0.0017853,0.35849316,-168.51645,410.13666)"
       gradientUnits="userSpaceOnUse" />
  </defs>
  <sodipodi:namedview
     id="base"
     pagecolor="#ffffff"
     bordercolor="#666666"
     borderopacity="1.0"
     inkscape:pageopacity="0.0"
     inkscape:pageshadow="2"
     inkscape:zoom="0.98994949"
     inkscape:cx="204.10561"
     inkscape:cy="275.48608"
     inkscape:document-units="px"
     inkscape:current-layer="layer1"
     showgrid="false"
     units="px"
     inkscape:window-width="1920"
     inkscape:window-height="1007"
     inkscape:window-x="0"
     inkscape:window-y="27"
     inkscape:window-maximized="1" />
  <metadata
     id="metadata7">
    <rdf:RDF>
      <cc:Work
         rdf:about="">
        <dc:format>image/svg+xml</dc:format>
        <dc:type
           rdf:resource="http://purl.org/dc/dcmitype/StillImage" />
        <dc:title />
      </cc:Work>
    </rdf:RDF>
  </metadata>
  <g
     inkscape:label="Camada 1"
     inkscape:groupmode="layer"
     id="layer1"
     transform="translate(0,-452.36216)">
    <path
       id="path4191"
       style="opacity:1;fill:#0000ff;fill-opacity:1;fill-rule:nonzero;stroke:#000000;stroke-width:2.41292095;stroke-linecap:square;stroke-linejoin:round;stroke-miterlimit:4;stroke-dasharray:none"
       d="m 341.18504,563.93197 c 0,5.98826 -4.85445,10.84271 -10.84272,10.84271 -5.98827,0 -10.8427,-4.85445 -10.8427,-10.84271 0,-5.98826 4.85445,-10.84271 10.8427,-10.84271 5.98827,0 10.84272,4.85444 10.84272,10.84271 z m 46.89504,95.65516 C 346.301,647.46642 255.36942,631.49141 255.36942,605.72728 l 0,-22.83658 104.27266,0 c 0,-24.25434 -0.89143,-41.36436 -54.29072,-41.36436 l -61.18479,0.86176 c -32.18381,0 -21.54393,41.34735 -21.54393,80.14345 0,25.78242 53.43158,39.84415 83.59047,50.8437 z"
       inkscape:connector-curvature="0"
       sodipodi:nodetypes="ssssscsccccscc" />
    <path
       style="fill:#0000ff;fill-rule:evenodd;stroke:#000000;stroke-width:2.41292095;stroke-linecap:butt;stroke-linejoin:miter;stroke-miterlimit:4;stroke-dasharray:none;stroke-opacity:1"
       d="m 242.55548,680.59027 c 1.72351,49.40742 38.27864,93.4816 140.52772,106.00667 12.35185,47.68392 8.90905,204.42438 6.61103,224.53206 -4.24754,19.7106 -64.55788,8.7908 -78.25983,20.3167 -38.98018,21.8672 231.89234,19.445 185.84263,-2.0623 -13.0157,-11.1662 -73.32604,-0.2464 -77.57358,-19.9571 -2.29802,-20.10753 -5.74082,-176.84803 6.61103,-224.53195 C 528.56356,772.36927 565.11869,728.2951 566.8422,678.88767 Z"
       id="path4140-6"
       inkscape:connector-curvature="0"
       sodipodi:nodetypes="cccccccc" />
    <ellipse
       style="opacity:1;fill:url(#radialGradient4839);fill-opacity:1;fill-rule:nonzero;stroke:#000000;stroke-width:2.41292095;stroke-linecap:square;stroke-linejoin:round;stroke-miterlimit:4;stroke-dasharray:none"
       id="path4136"
       cx="404.45346"
       cy="679.32135"
       rx="162.01042"
       ry="28.007118" />
    <path
       id="path4191-5"
       style="opacity:1;fill:#ffff00;fill-opacity:1;fill-rule:nonzero;stroke:#000000;stroke-width:2.41292095;stroke-linecap:square;stroke-linejoin:round;stroke-miterlimit:4;stroke-dasharray:none"
       d="m 366.91308,987.05502 c 0,-5.98826 4.85445,-10.84271 10.84272,-10.84271 5.98826,0 10.8427,4.85445 10.8427,10.84271 0,5.98826 -4.85445,10.84271 -10.8427,10.84271 -5.98827,0 -10.84272,-4.85444 -10.84272,-10.84271 z m -22.76583,-90.48461 c 0,63.58215 108.58145,31.97362 108.58145,57.73775 l 0,13.78813 -104.27266,0 c 0,24.25434 0.89142,41.36431 54.29072,41.36431 l 61.18479,-0.8617 c 32.18381,0 21.54393,-41.34736 21.54393,-80.14346 0,-25.78242 -57.77099,-19.82731 -87.92988,-30.82685 -17.04227,1.47098 -21.94136,-49.70664 3.39512,-49.70664 13.79203,0 6.78619,-36.86313 -3.66613,-36.86313 -67.58221,0 -53.12734,30.60389 -53.12734,85.51159 z"
       inkscape:connector-curvature="0"
       sodipodi:nodetypes="ssssscsccccscssc" />
    <path
       style="fill:#0000ff;fill-rule:evenodd;stroke:#ffffff;stroke-width:0;stroke-linecap:butt;stroke-linejoin:miter;stroke-miterlimit:4;stroke-dasharray:none;stroke-opacity:1"
       d="m 387.86463,809.53292 3.23159,44.16506 19.60499,-2.36982 2.36983,-54.07529 z"
       id="path4210"
       inkscape:connector-curvature="0"
       sodipodi:nodetypes="ccccc" />
    <path
       style="fill:none;fill-rule:evenodd;stroke:#000000;stroke-width:2.41292095;stroke-linecap:butt;stroke-linejoin:miter;stroke-miterlimit:4;stroke-dasharray:none;stroke-opacity:1"
       d="m 386.572,806.94765 3.87791,48.6893"
       id="path4212"
       inkscape:connector-curvature="0" />
    <path
       style="fill:#0000ff;fill-rule:evenodd;stroke:#000000;stroke-width:2.41292095;stroke-linecap:butt;stroke-linejoin:miter;stroke-miterlimit:4;stroke-dasharray:none;stroke-opacity:1"
       d="m 488.9257,770.66515 c -1.23932,83.11381 -4.66462,78.91142 -73.7319,78.91142 l -0.91403,-36.16102 c 21.40103,0 35.71483,7.78059 35.71483,-31.88657 z"
       id="path4214"
       inkscape:connector-curvature="0"
       sodipodi:nodetypes="ccccc" />
    <path
       style="fill:#0000ff;fill-rule:evenodd;stroke:#ffffff;stroke-width:0;stroke-linecap:butt;stroke-linejoin:miter;stroke-miterlimit:4;stroke-dasharray:none;stroke-opacity:1"
       d="m 420.79723,807.89221 -3.23159,44.16507 -19.60498,-2.36982 -2.36984,-54.07529 z"
       id="path4210-3"
       inkscape:connector-curvature="0"
       sodipodi:nodetypes="ccccc" />
    <path
       style="fill:none;fill-rule:evenodd;stroke:#000000;stroke-width:2.41292095;stroke-linecap:butt;stroke-linejoin:miter;stroke-miterlimit:4;stroke-dasharray:none;stroke-opacity:1"
       d="m 422.31227,804.20919 -3.87792,48.6893"
       id="path4212-5"
       inkscape:connector-curvature="0" />
    <text
       xml:space="preserve"
       style="font-style:normal;font-variant:normal;font-weight:normal;font-stretch:normal;font-size:81.85360718px;line-height:125%;font-family:Lobster;-inkscape-font-specification:'Lobster, Normal';text-align:start;letter-spacing:0px;word-spacing:0px;writing-mode:lr-tb;text-anchor:start;fill:#0000ff;fill-opacity:1;stroke:none;stroke-width:2;stroke-linecap:butt;stroke-linejoin:miter;stroke-miterlimit:4;stroke-dasharray:none;stroke-opacity:1"
       x="124.60337"
       y="519.0332"
       id="text4267"
       sodipodi:linespacing="125%"><tspan
         sodipodi:role="line"
         id="tspan4269"
         x="124.60337"
         y="519.0332">Farmácia-Clínica</tspan></text>
  </g>
</svg>
